<svg xmlns="http://www.w3.org/2000/svg" width="256" height="256" viewBox="0 0 64 64">
  <path d="M9.14 29.93q-.12.06-.3.06h-.3q-.98 0-1.83-.67-.8-.66-.8-1.82 0-.91.56-1.64.6-.8 1.52-1.03 2.55-.67 5.71-1.89 3.16-1.21 6.32-2.86 3.23-1.64 5.66-3.46.24-.12.18-.24-.06-.19-.3-.19H10.6q-1.03 0-1.82-.79-.73-.79-.73-1.82t.73-1.76q.79-.8 1.82-.8h18.36q.36 0 .36-.36V7.99q0-1.1.8-1.89.79-.79 1.88-.79 1.1 0 1.88.8.8.72.8 1.88v2.67q0 .37.36.37h18.85q1.03 0 1.76.79.79.73.79 1.76t-.79 1.82q-.73.8-1.76.8H38.57q-.25 0-.3.18-.07.12.17.24 2.31 1.52 5.42 3.1 3.1 1.58 6.38 2.86 3.28 1.21 6.14 1.88.97.18 1.52.91.6.67.6 1.64 0 1.28-1.03 2.07-.97.73-2.12.49-3.65-.8-7.36-2.2-3.7-1.39-7.05-3.15-3.29-1.83-5.84-3.65-.42-.3-.42.24v8.21q0 1.1-.8 1.89-.79.79-1.88.79-1.1 0-1.88-.73-.8-.8-.8-1.95v-8.08q0-.5-.42-.19-2.68 2-6.08 3.83-3.34 1.77-6.93 3.16-3.53 1.4-6.75 2.2zM28.9 45.74q1.15.85 1.15 2.19 0 .73-.3 1.21-.67 1.34-2.13 1.34-.6 0-1.15-.36-2.56-1.64-4.68-3.77-.13-.18-.3-.12-.13.06-.13.3v9.6q0 .98-.79 1.77-.73.79-1.76.79-1.1 0-1.89-.8-.73-.78-.73-1.75v-7.72q0-.25-.18-.3-.12-.07-.24.11-1.64 2-3.53 3.77-1.82 1.77-3.59 3.1-.54.37-1.21.37-.67 0-1.28-.37-.55-.36-.79-1.03-.06-.3-.18-.55-.06-.3-.06-.6 0-1.47 1.4-2.68 2.25-1.76 4.56-4.44 2.3-2.67 3.64-5.23.25-.42-.24-.42H8.78q-.98 0-1.77-.73-.73-.73-.73-1.77 0-1.03.73-1.76t1.77-.73h7.05q.36 0 .36-.36v-2.98q0-1.04.73-1.77.8-.79 1.89-.79 1.03 0 1.76.8.8.72.8 1.76v2.98q0 .36.36.36h7.05q1.03 0 1.76.73.8.73.8 1.76 0 .98-.8 1.77-.73.73-1.76.73h-5.1q-.56 0-.2.48 1.22 1.46 2.62 2.86 1.46 1.34 2.8 2.25zm28.63 3.4q1.34 1.04 1.34 2.62 0 1.15-.73 1.88-.67.67-1.58.67-.67 0-1.27-.42-1.83-1.4-3.53-3.04-1.64-1.7-3.04-3.4-.12-.19-.3-.13-.13.06-.13.3v8.52q0 .97-.79 1.76-.73.79-1.82.79-1.03 0-1.82-.8-.73-.78-.73-1.75v-8.7q0-.24-.19-.3-.12-.06-.24.12-2.07 2.5-4.62 4.62-2.55 2.13-5.05 3.4-.48.25-1.03.25-1.52 0-2.19-1.46-.06-.24-.18-.49-.06-.24-.06-.48 0-1.52 1.4-2.44 1.58-.97 3.52-2.49 1.95-1.52 3.77-3.46 1.83-1.95 3.04-4.14.25-.42-.24-.42H35.7q-1.03 0-1.83-.73-.72-.73-.72-1.77 0-1.03.72-1.76.8-.73 1.83-.73h7.05q.37 0 .37-.36v-2.98q0-1.04.73-1.77.79-.79 1.82-.79t1.82.8q.8.72.8 1.76v2.98q0 .36.36.36h7.05q1.03 0 1.76.73t.73 1.76q0 .98-.73 1.77-.73.73-1.76.73h-5.53q-.49 0-.18.48 1.45 2.37 3.52 4.68 2.07 2.25 4.01 3.83z" fill="#30a46c"/>
</svg>
